HIERARCHY
ROOT Hips
{
	OFFSET -14.64140 90.27770 -84.91600
	CHANNELS 6 Xposition Yposition Zposition Zrotation Xrotation Yrotation
	JOINT Spine
	{
		OFFSET 0.00000 13.20850 -1.60436
		CHANNELS 3 Zrotation Xrotation Yrotation
		JOINT Spine1
		{
			OFFSET 0.00000 8.61716 0.00000
			CHANNELS 3 Zrotation Xrotation Yrotation
			JOINT Spine2
			{
				OFFSET 0.00000 8.61717 0.00000
				CHANNELS 3 Zrotation Xrotation Yrotation
				JOINT Spine3
				{
					OFFSET 0.00000 8.61717 0.00000
					CHANNELS 3 Zrotation Xrotation Yrotation
					JOINT Neck
					{
						OFFSET 0.00000 11.07920 1.10792
						CHANNELS 3 Zrotation Xrotation Yrotation
						JOINT Neck1
						{
							OFFSET 0.00000 7.08032 0.00000
							CHANNELS 3 Zrotation Xrotation Yrotation
							JOINT Head
							{
								OFFSET 0.00000 7.08031 0.00000
								CHANNELS 3 Zrotation Xrotation Yrotation
								End site
								{
									OFFSET 0.00000 0.00000 0.00000
								}
							}
						}
					}
					JOINT RightShoulder
					{
						OFFSET -0.01000 7.91373 5.19711
						CHANNELS 3 Zrotation Xrotation Yrotation
						JOINT RightArm
						{
							OFFSET -18.41580 0.00000 0.00000
							CHANNELS 3 Zrotation Xrotation Yrotation
							JOINT RightForeArm
							{
								OFFSET -29.11090 0.00000 0.00000
								CHANNELS 3 Zrotation Xrotation Yrotation
								JOINT RightHand
								{
									OFFSET -24.65040 0.00000 0.00000
									CHANNELS 3 Zrotation Xrotation Yrotation
									JOINT RightHandThumb1
									{
										OFFSET -5.35114 -0.85590 3.97906
										CHANNELS 3 Zrotation Xrotation Yrotation
										JOINT RightHandThumb2
										{
											OFFSET -4.52789 0.00000 0.00000
											CHANNELS 3 Zrotation Xrotation Yrotation
											JOINT RightHandThumb3
											{
												OFFSET -2.46976 0.00000 0.00000
												CHANNELS 3 Zrotation Xrotation Yrotation
												End site
												{
													OFFSET 0.00000 0.00000 0.00000
												}
											}
										}
									}
									JOINT RightHandIndex1
									{
										OFFSET -14.26970 0.00000 2.88139
										CHANNELS 3 Zrotation Xrotation Yrotation
										JOINT RightHandIndex2
										{
											OFFSET -5.48836 0.00000 0.00000
											CHANNELS 3 Zrotation Xrotation Yrotation
											JOINT RightHandIndex3
											{
												OFFSET -3.01859 0.00000 0.00000
												CHANNELS 3 Zrotation Xrotation Yrotation
												End site
												{
													OFFSET 0.00000 0.00000 0.00000
												}
											}
										}
									}
									JOINT RightHandMiddle1
									{
										OFFSET -14.26970 0.00000 -0.09147
										CHANNELS 3 Zrotation Xrotation Yrotation
										JOINT RightHandMiddle2
										{
											OFFSET -6.17441 0.00000 0.00000
											CHANNELS 3 Zrotation Xrotation Yrotation
											JOINT RightHandMiddle3
											{
												OFFSET -3.56743 0.00000 0.00000
												CHANNELS 3 Zrotation Xrotation Yrotation
												End site
												{
													OFFSET 0.00000 0.00000 0.00000
												}
											}
										}
									}
									JOINT RightHandRing1
									{
										OFFSET -12.69180 0.00000 -3.06433
										CHANNELS 3 Zrotation Xrotation Yrotation
										JOINT RightHandRing2
										{
											OFFSET -5.62556 0.00000 0.00000
											CHANNELS 3 Zrotation Xrotation Yrotation
											JOINT RightHandRing3
											{
												OFFSET -3.56744 0.00000 0.00000
												CHANNELS 3 Zrotation Xrotation Yrotation
												End site
												{
													OFFSET 0.00000 0.00000 0.00000
												}
											}
										}
									}
									JOINT RightHandPinky1
									{
										OFFSET -11.11390 0.00000 -6.03719
										CHANNELS 3 Zrotation Xrotation Yrotation
										JOINT RightHandPinky2
										{
											OFFSET -4.52789 0.00000 0.00000
											CHANNELS 3 Zrotation Xrotation Yrotation
											JOINT RightHandPinky3
											{
												OFFSET -2.46976 0.00000 0.00000
												CHANNELS 3 Zrotation Xrotation Yrotation
												End site
												{
													OFFSET 0.00000 0.00000 0.00000
												}
											}
										}
									}
								}
							}
						}
					}
					JOINT LeftShoulder
					{
						OFFSET 0.01000 7.91373 5.19711
						CHANNELS 3 Zrotation Xrotation Yrotation
						JOINT LeftArm
						{
							OFFSET 18.41580 0.00000 0.00000
							CHANNELS 3 Zrotation Xrotation Yrotation
							JOINT LeftForeArm
							{
								OFFSET 29.11090 0.00000 0.00000
								CHANNELS 3 Zrotation Xrotation Yrotation
								JOINT LeftHand
								{
									OFFSET 24.65040 0.00000 0.00000
									CHANNELS 3 Zrotation Xrotation Yrotation
									JOINT LeftHandThumb1
									{
										OFFSET 5.35114 -0.85590 3.97906
										CHANNELS 3 Zrotation Xrotation Yrotation
										JOINT LeftHandThumb2
										{
											OFFSET 4.52789 0.00000 0.00000
											CHANNELS 3 Zrotation Xrotation Yrotation
											JOINT LeftHandThumb3
											{
												OFFSET 2.46977 0.00000 0.00000
												CHANNELS 3 Zrotation Xrotation Yrotation
												End site
												{
													OFFSET 0.00000 0.00000 0.00000
												}
											}
										}
									}
									JOINT LeftHandIndex1
									{
										OFFSET 14.26970 0.00000 2.88139
										CHANNELS 3 Zrotation Xrotation Yrotation
										JOINT LeftHandIndex2
										{
											OFFSET 5.48836 0.00000 0.00000
											CHANNELS 3 Zrotation Xrotation Yrotation
											JOINT LeftHandIndex3
											{
												OFFSET 3.01859 0.00000 0.00000
												CHANNELS 3 Zrotation Xrotation Yrotation
												End site
												{
													OFFSET 0.00000 0.00000 0.00000
												}
											}
										}
									}
									JOINT LeftHandMiddle1
									{
										OFFSET 14.26970 0.00000 -0.09147
										CHANNELS 3 Zrotation Xrotation Yrotation
										JOINT LeftHandMiddle2
										{
											OFFSET 6.17440 0.00000 0.00000
											CHANNELS 3 Zrotation Xrotation Yrotation
											JOINT LeftHandMiddle3
											{
												OFFSET 3.56744 0.00000 0.00000
												CHANNELS 3 Zrotation Xrotation Yrotation
												End site
												{
													OFFSET 0.00000 0.00000 0.00000
												}
											}
										}
									}
									JOINT LeftHandRing1
									{
										OFFSET 12.69180 0.00000 -3.06433
										CHANNELS 3 Zrotation Xrotation Yrotation
										JOINT LeftHandRing2
										{
											OFFSET 5.62556 0.00000 0.00000
											CHANNELS 3 Zrotation Xrotation Yrotation
											JOINT LeftHandRing3
											{
												OFFSET 3.56744 0.00000 0.00000
												CHANNELS 3 Zrotation Xrotation Yrotation
												End site
												{
													OFFSET 0.00000 0.00000 0.00000
												}
											}
										}
									}
									JOINT LeftHandPinky1
									{
										OFFSET 11.11390 0.00000 -6.03719
										CHANNELS 3 Zrotation Xrotation Yrotation
										JOINT LeftHandPinky2
										{
											OFFSET 4.52789 0.00000 0.00000
											CHANNELS 3 Zrotation Xrotation Yrotation
											JOINT LeftHandPinky3
											{
												OFFSET 2.46976 0.00000 0.00000
												CHANNELS 3 Zrotation Xrotation Yrotation
												End site
												{
													OFFSET 0.00000 0.00000 0.00000
												}
											}
										}
									}
								}
							}
						}
					}
					JOINT pCube4
					{
						OFFSET 0.00000 10.91090 1.10792
						CHANNELS 3 Zrotation Xrotation Yrotation
						End site
						{
							OFFSET 0.00000 0.00000 0.00000
						}
					}
				}
			}
		}
	}
	JOINT RightUpLeg
	{
		OFFSET -9.98441 0.00000 0.00000
		CHANNELS 3 Zrotation Xrotation Yrotation
		JOINT RightLeg
		{
			OFFSET 0.00000 -42.11790 0.00000
			CHANNELS 3 Zrotation Xrotation Yrotation
			JOINT RightFoot
			{
				OFFSET 0.00000 -45.00020 -0.00001
				CHANNELS 3 Zrotation Xrotation Yrotation
				JOINT RightForeFoot
				{
					OFFSET 0.00000 -3.74820 0.00000
					CHANNELS 3 Zrotation Xrotation Yrotation
					JOINT RightToeBase
					{
						OFFSET 0.00000 0.06325 14.43120
						CHANNELS 3 Zrotation Xrotation Yrotation
						End site
						{
							OFFSET 0.00000 0.00000 0.00000
						}
					}
				}
			}
		}
	}
	JOINT LeftUpLeg
	{
		OFFSET 9.98441 0.00000 0.00000
		CHANNELS 3 Zrotation Xrotation Yrotation
		JOINT LeftLeg
		{
			OFFSET 0.00000 -42.11800 0.00000
			CHANNELS 3 Zrotation Xrotation Yrotation
			JOINT LeftFoot
			{
				OFFSET 0.00000 -45.00070 0.00000
				CHANNELS 3 Zrotation Xrotation Yrotation
				JOINT LeftForeFoot
				{
					OFFSET 0.00000 -3.74824 0.00000
					CHANNELS 3 Zrotation Xrotation Yrotation
					JOINT LeftToeBase
					{
						OFFSET 0.00000 0.06325 14.43110
						CHANNELS 3 Zrotation Xrotation Yrotation
						End site
						{
							OFFSET 0.00000 0.00000 0.00000
						}
					}
				}
			}
		}
	}
}
MOTION
Frames: 4
Frame Time: 0.050000
-0.031244057967212566 0.004439205235215625 0.015732641749306924 -0.03642743931961366 -0.0018691848634375759 0.008037259461358297 -2.478160042076347 -0.2951754506162341 -0.9387932118640202 -0.7326914799762274 3.532584511659973 0.3455273572443741 -1.0613512735890798 -2.2794552181217225 -2.2874547675224473 0.3191070074804083 0.005627963774043485 -0.9872920405146567 -0.07413434845618797 13.013083260072108 0.041092973524899844 0.24704764168725257 0.3781325585037097 -0.3154738310943789 0.11254262806888476 -14.102679325386646 -0.029428267660705998 -4.178923040867945 1.55416894584585 -14.50416320553931 69.2955546002007 9.503652483053168 9.947344766715467 50.48578684878685 4.782774951871028 94.57647530936894 25.214903687461682 -0.33978407942024624 -5.053403415180014 4.528941016888633 -0.142183086992458 -1.595840474291008 0.03705388004350226 -0.011302996830889265 -56.20736848315247 0.019188891044659418 -0.016444878117898454 -56.18533084718058 -38.75585788660164 -0.006933116699454294 -0.04767860963320771 -0.04254160809473391 -0.03647655665282774 0.01579317112615886 -0.00029331524006077935 -0.00028215785095279554 -0.0007119117807274826 -36.6758095527901 0.0419038816950302 0.01789506674677322 0.03151512888980795 -0.027141692534431727 0.03277943050287143 -0.0396419138223797 0.04255049735893789 -0.024040615144829195 -19.75295224721722 0.0383894900122329 0.004851292567360025 0.04706797861019225 0.01991770463883067 0.016824844883760705 -0.017520280898109884 -0.014984415596781592 0.049132847529093866 24.067533639351097 -0.027608167402513505 -0.028791297401331552 28.844122929579456 0.01833091023055034 0.023274765897370157 28.82262895093798 0.02919472323680967 0.01681208320588228 6.923972457272615 1.5981936306406044 11.854983938834598 -69.30301060049682 14.096322896987127 -15.12520803639092 -75.14433723754028 0.42821538649700597 -96.56225304973808 -17.508790377427417 -2.0329337686759303 -0.036259463668503716 -0.44978494083188564 0.04700359783873706 -8.156585037082543 0.018972840827022306 0.024914402873183816 44.603860838567265 0.029577692204658203 -0.03468034239609679 44.545481490762164 12.433219213039404 -0.009066151001507202 0.013452502269400405 -0.03148209693791433 -0.004062736060588249 -0.027504607937933433 0.011520651194773215 0.022573101220883348 -0.03365077395985592 11.119231850843203 -0.0006736161247521385 -0.011282498230388535 -0.038129916931106025 0.020039908029715458 -0.01898306312179943 0.0016295166598621893 0.041383139226241025 0.01085341372625164 4.769799174743889 -0.014332357916855701 0.02271754603314182 0.02718052148688709 0.025949675450974943 0.011329069785992234 -0.045989860587374226 -0.03360591499556538 0.015263331676442482 -5.57319328968834 -0.020502189830964627 -0.006253434049607143 -6.765796821654186 0.042160989023431614 -0.039553998934255624 -6.681509606878745 0.010424546938394681 -0.012719588235120963 0.0013296222905569486 -0.010697410796126667 -0.03389903450281098 8.035902673290579 3.5325536648360925 -19.242255377335265 -0.030279775219695226 10.407829525915162 0.0182986104072478 -5.616592013159686 -15.631391236930927 3.2418938207602603 0.03131702041030403 0.002924904298135153 0.016382605614350502 0.04556748472908919 4.712738635584921 0.008284977204014632 12.483615241813592 -8.258089169324629 6.854034329689506 -0.020667358690063354 46.42670138034589 -0.0013718266056773206 -4.373708009045199 -14.765321354970768 -3.8071266763664995 -0.006790677244957007 0.015280056843234259 0.00405725916181143 -0.030640049745731313 -10.779347853306364 -0.005242194422523632 
-0.02095416048413973 0.024664073479963813 0.02174446950450992 0.006633181497661119 0.00042539635017106015 -0.01765854939661922 -2.5489801012022073 -0.39029563495709424 -0.9525416879218791 -0.762469246345434 3.559818385762505 0.28524802477640243 -1.0784214225050035 -2.237106121801344 -2.2515438069999103 0.27118561911242256 0.012138892624574836 -0.952693879909112 -0.07659210081659631 12.966752434335826 0.13295267791167548 0.22563944056889873 0.35944504642681185 -0.25378344539083625 0.15789534556105206 -14.157695667902681 0.008997949113626679 -4.0844328949441335 1.5025943178065593 -14.522738923063288 69.65486434503472 10.69814548590963 8.675501800016908 50.57031954246941 5.40835400466835 94.10758070878441 25.132798151175937 -0.3230130270834388 -4.970928902429795 4.5451387484605155 -0.11923741977990544 -1.5655611323594678 0.001997382970060866 -0.022290567883084155 -56.26944677840435 0.04059859401072125 -0.0114461255883629 -56.28313366554513 -38.7980571567826 -0.000596758706460953 0.01705510951819614 0.00051539559822779 0.019789867213715107 0.0008182596113828805 0.028553943411299475 -0.011671571713050269 -0.042489106666707015 -36.72706481851221 -0.012856376043896018 0.0360169014651051 0.014767226073478924 0.01203181976243157 -0.03986359396874022 -0.0339024082573976 0.027317459068496544 0.019819207380701982 -19.74606163146333 0.032916550336566174 0.031051866837262885 0.015815491388920692 -0.023251812577752114 -0.016757041126189174 0.006464613091021407 0.0005741551243877704 -0.007603875642032892 24.059977805693777 -0.01713913447933657 0.011246214387815699 28.861806994011648 0.045138199414884984 0.022840689251557075 28.89019926718042 -0.027227829392654324 -0.016576734233557308 6.862939240207053 1.6348560786509314 11.916416107473033 -70.05681542655755 14.262164864456704 -13.960967621152461 -78.27965475276555 0.9607095353974445 -97.72164520082241 -18.051434124293127 -2.0765455866147726 -0.16468245360931746 -0.4676096055755897 0.09465782085227165 -8.13082000605825 -0.01379905865686586 0.035770618025889725 44.581982406869784 0.028479733708172042 -0.042840206036316 44.5547835125998 12.456876740766507 -0.04270844473359191 -0.013958814595184195 -0.03223805115091571 -0.03752318006067947 -0.02582167665390719 0.04872947860430832 0.024106532656691652 0.03168033967216752 11.126426122529445 -0.0216787566542615 0.017645279800323318 0.011031649906687719 0.011685211472974183 -0.006993845635809029 0.027415983975413023 0.039804935866374985 -0.03786463166292875 4.767463999391939 0.017068788894337848 -0.035477702305179167 -0.04289852279463006 0.01409357116056948 0.02964906192942485 -0.04468112998582415 0.04795425071571426 0.03461170281096834 -5.577214611509589 -0.031896856353122116 -0.020354426028466058 -6.741140121836909 -0.045617451667048683 -0.010056740216750897 -6.683170207075492 0.0009802906114417885 -0.04491929054527223 -0.0396161553064198 -0.024470688169919146 0.0198241408526202 8.032940853946842 3.509787691079652 -19.192820080644264 0.028935739045990047 10.408780567759718 0.0633223179221609 -5.609043847863294 -15.669258378069111 3.157461393316594 0.048594676107552914 -0.02767139822902202 0.03841491526898055 0.029757312525500963 4.699813902393316 -0.03492632528264574 12.504556190433266 -8.189898299954244 6.877646577063038 -0.008360633498976318 46.35509750504049 0.010183877828706453 -4.332427741471562 -14.751766266706207 -3.834731986175576 0.02960272088535385 0.04513347851287214 0.006267936579326239 -0.003953133370583837 -10.771271386927832 -0.01432782394488735 
-0.004029124015065225 0.040953355311789126 0.035922048290292434 -0.006822116496977783 0.024040174739851154 0.029130545121860182 -2.6049410461321183 -0.47047407139378433 -0.9309793629144085 -0.7269418565424324 3.5686058248425008 0.28605004338234297 -1.1091425684577252 -2.248229871330795 -2.296335871697216 0.2301166603755973 0.003976845710030465 -1.0151809895352812 -0.09324115364038263 12.83848172662149 0.07850422420674068 0.17998854954681434 0.2598293752265183 -0.3042583083375215 0.15298578586330067 -14.238306528076077 -0.01798945349116912 -3.9890954975092723 1.520816872372174 -14.613369763128603 69.66080684180879 10.485562262610603 7.549998717220819 49.22355709955009 6.026886386187749 92.90476780744568 24.874703675790894 -0.3635177029416371 -4.940920523347079 4.540929627622384 -0.09711177634857035 -1.6310880546485242 -0.016220088123795988 -0.01256473683211315 -56.221981694327425 -0.0350016419229587 -0.007844435435095684 -56.20457466916539 -38.81086166121224 -0.03613421462985386 -0.017074136301638683 -0.03961766167455168 0.029935645841808144 -0.009125502356194613 0.04760199494243301 0.025106905219377907 -0.022956975919500598 -36.67912028514551 -0.025146594896040837 0.01979402354470199 0.041517431494705076 -0.013561805236713352 -0.0006148645167887052 0.002581319453275399 -0.029333049909167543 0.0061533309118472854 -19.75516890830954 0.00965633920657706 0.037592052649735454 0.02429910346447501 0.005912570522756852 0.03735124873549577 -0.010424847673029163 0.04882129363631174 0.032380656877803296 24.08511437245844 0.0038280051200753765 -0.032284555380913474 28.830160880839866 -0.017361498598514845 0.03636684063265571 28.83203506045681 0.027510438145161603 -0.0381889120407924 6.744329762487188 1.5997192500719977 12.007162485737904 -70.4363295983362 13.372463825441576 -13.23781972283726 -78.92237320474469 1.0290058237584327 -98.09279497473612 -17.602859487410395 -1.8719381423926391 -0.46910090462844867 -0.5006135708545026 0.08684708493170343 -8.166811099650184 -0.037729999207742025 0.0169747422443235 44.57321874621899 -0.03324124781943072 0.011065395022924198 44.5737652779574 12.449975474479675 0.025398135337514886 0.011537406135056454 -0.008787234397211616 -0.04203835506634133 -0.040666740588596206 -0.018251812212883366 -0.030953164619217495 0.012660614171506986 11.126646158066352 -0.033592290420410946 -0.026446067544804303 0.045109455919406155 0.02266052282085226 0.000581358160627546 0.02427573743710579 0.032967594578622354 0.036469993357470566 4.72675067558979 0.0038146300485223986 0.016694502480479535 -0.006636549400495119 0.022213686537322266 -0.014380086310202787 -0.02256908468103653 -0.04422090880473676 0.03703957200029494 -5.5867994076755 0.04641376844013952 -0.035987311645597535 -6.721704609214305 0.0008236334328765501 0.012917065382733002 -6.6739449291134 0.023227241809821445 0.0359805379317448 0.008173822780345012 0.010256553999393694 -0.009683246112760042 8.014182672320386 3.4538942385260882 -19.21935957788142 0.018692060194790465 10.414649698825981 -0.031035107301623063 -5.630591099503532 -15.678488703697138 3.1995373719774993 0.003600573032546153 0.0022171518701125225 -0.04331367234146329 -0.027143576871391083 4.676596163745724 0.025965178266847806 12.47605307658679 -8.21178823435745 6.908566164769675 0.00013826938336087327 46.347483853629576 -0.02534297762339305 -4.278329618090142 -14.749103652309092 -3.879911519666645 0.03802219917251316 0.019955259516926428 0.01983143137633028 0.0027783098678955524 -10.70093773351479 -0.006408898549068338 
0.0169200026100197 0.013964023611490834 0.009541867258054592 -0.033614279474151985 0.004285665843914282 0.008217531223072881 -2.675292007748888 -0.43493705435555186 -0.8467744558644914 -0.7511390903354122 3.5548685814949224 0.2685397359508876 -1.0637795850649854 -2.232729294346256 -2.2403855888558732 0.2529583012277412 0.0493857954220184 -0.9864297545632951 -0.033037236813432236 12.596640876308618 0.05335165357692326 0.20242079617014702 0.24247446932417782 -0.3792221116966084 0.11322741671146941 -14.233518196845143 0.0269045361980503 -3.8751160154414963 1.5169256711337256 -14.743271704991523 69.74827340977667 9.858350519778332 6.569001056548661 47.850847812765146 6.525995054148465 91.97182189317816 24.766619523775965 -0.3009690760887644 -5.057660222407985 4.5772177584043545 -0.10854228860791781 -1.5781840453476013 -0.007850752413757968 0.010247070636255321 -56.22832093852699 0.019614898056196973 0.026891055082740173 -56.24797586789063 -38.77197494315699 -0.015973740169122348 0.020185521628173702 0.006466815304399593 -0.002351669303481317 -0.01660816239715771 0.0433764788900935 -0.03711531916337176 -0.019137796817953478 -36.67093772829497 -0.04916505177083996 -0.04006016036620054 -0.004083852790649956 -0.0002167041929422846 -0.02894005816873525 0.0018098968719471081 -0.03639795031181258 0.0044153850216319445 -19.796131896908054 -0.023830100232572288 0.0016446299233842147 -0.0003713908587511031 -0.00847833076433258 -0.02219108169810792 -0.030622436195733585 0.016009650807867953 0.010994607445757785 24.05622215859439 0.009549054486846736 -0.045588518054178406 28.838199416581833 -0.045867447608217864 0.0020717998897935297 28.850556025443627 0.03461586067311138 0.012832560626407825 6.6320873318187745 1.5922840990125555 12.105122264601752 -70.71888960527164 12.596861292208118 -12.561958195523857 -79.02084257115831 1.1260899274786043 -98.25292599768501 -17.144265720542045 -1.6044732588461112 -0.7710054415300602 -0.5172338936669215 0.044951186667327156 -8.13286157575872 -0.010572222116070243 0.0070953981229532155 44.521057014539416 0.02706940974438746 -0.043728675805825 44.52010988438915 12.434458356344198 0.014325768258502932 0.03277291259492284 -0.012284868625160261 -0.013814645743305074 0.00999293403116437 -0.02475701328932786 -0.042151796610590285 -0.03092216374088927 11.119525595564491 -0.019732677910614636 -0.029263400250540743 -0.02585525485611565 0.019482506974067053 0.03367927389026663 0.040995157018584465 -0.008115571100331311 0.01680193337072089 4.810194830710256 0.004591495265232605 0.04579484377856591 -0.008474861575733295 0.012733136063505941 0.030440477402245203 0.0058437871719284025 -0.008981408449135087 -0.026342224366275268 -5.576749104529182 -0.01580125042331164 0.001501925811584975 -6.711417559012176 0.0030133987484275136 0.03077850623531703 -6.673067111742665 0.037612710114533286 0.016028300463509653 -0.009618073407687125 0.01670440593061029 0.003923751147105376 8.018416816910172 3.4612858336911185 -19.182696546908947 -0.04173802523743613 10.377885540630336 -0.008936222914517053 -5.645729871710569 -15.650370223363792 3.215702823963512 -0.04200865948964782 0.03393130528482985 0.02351695988286872 0.010785494501999268 4.69209887431949 0.010855184792851663 12.4505348786272 -8.193233181885349 6.91404290786323 0.020246309805573483 46.394539273420285 -0.03956785800937233 -4.355157732032888 -14.758065284400908 -3.869484995369001 0.037844420984448034 0.026682875172675823 -0.009454205524467222 -0.0013345647320460337 -10.749461291363106 0.027166867622564757 
